<?xml version="1.0" standalone="no"?><!DOCTYPE svg PUBLIC "-//W3C//DTD SVG 1.1//EN" "http://www.w3.org/Graphics/SVG/1.1/DTD/svg11.dtd"><svg t="1575950415999" class="icon" viewBox="0 0 1024 1024" version="1.1" xmlns="http://www.w3.org/2000/svg" p-id="24478" xmlns:xlink="http://www.w3.org/1999/xlink" width="200" height="200"><defs><style type="text/css"></style></defs><path d="M0 0l0 236.8 1024 0L1024 0 0 0zM185.6 172.8 70.4 172.8 70.4 70.4l108.8 0L179.2 172.8zM345.6 172.8 236.8 172.8 236.8 70.4l108.8 0L345.6 172.8zM512 172.8 403.2 172.8 403.2 70.4 512 70.4 512 172.8 512 172.8z" p-id="24479"></path><path d="M0 390.4l0 236.8 1024 0L1024 390.4 0 390.4zM185.6 563.2 70.4 563.2 70.4 460.8l108.8 0L179.2 563.2zM345.6 563.2 236.8 563.2 236.8 460.8l108.8 0L345.6 563.2zM512 563.2 403.2 563.2 403.2 460.8 512 460.8 512 563.2 512 563.2z" p-id="24480"></path><path d="M0 787.2 0 1024l1024 0 0-236.8L0 787.2zM185.6 953.6 70.4 953.6l0-102.4 108.8 0L179.2 953.6zM345.6 953.6 236.8 953.6l0-102.4 108.8 0L345.6 953.6zM512 953.6 403.2 953.6l0-102.4L512 851.2 512 953.6 512 953.6z" p-id="24481"></path></svg>